<svg xmlns="http://www.w3.org/2000/svg" width="254.727" height="50" viewBox="0 0 254.727 50">
  <g id="Grupo_219" data-name="Grupo 219" transform="translate(-40.633 -251.196)">
    <g id="Grupo_217" data-name="Grupo 217" transform="translate(101.694 266.162)">
      <g id="Grupo_216" data-name="Grupo 216" transform="translate(0 0)">
        <path id="Trazado_744" data-name="Trazado 744" d="M182.714,286.36q-2.242-3.244-7.2-3.245a9.441,9.441,0,0,0-6.771,2.39,8.475,8.475,0,0,0-2.522,6.46,8.618,8.618,0,0,0,2.4,6.4,8.9,8.9,0,0,0,6.564,2.39,8.555,8.555,0,0,0,7.257-3.3l1.3.826a10.126,10.126,0,0,1-8.525,3.865,10.62,10.62,0,0,1-7.67-2.714,9.694,9.694,0,0,1-2.832-7.345,9.979,9.979,0,0,1,2.92-7.553,10.9,10.9,0,0,1,7.877-2.8q5.752,0,8.466,3.834Z" transform="translate(-164.719 -281.669)" fill="#888"/>
        <path id="Trazado_745" data-name="Trazado 745" d="M214.113,307.894a7.126,7.126,0,0,1-7.611-7.523,7.321,7.321,0,0,1,2.11-5.5,7.639,7.639,0,0,1,5.561-2.05,7.536,7.536,0,0,1,5.531,2.05,7.379,7.379,0,0,1,2.08,5.5,7.273,7.273,0,0,1-2.109,5.487A7.672,7.672,0,0,1,214.113,307.894Zm4.543-11.992a5.952,5.952,0,0,0-4.513-1.7,6.029,6.029,0,0,0-4.484,1.667,6.109,6.109,0,0,0-1.652,4.5,6.141,6.141,0,1,0,12.272,0A6.2,6.2,0,0,0,218.656,295.9Z" transform="translate(-185.941 -287.302)" fill="#888"/>
        <path id="Trazado_746" data-name="Trazado 746" d="M260.943,307.569v-9.41q0-3.953-3.835-3.953a4.783,4.783,0,0,0-3.392,1.18,4.1,4.1,0,0,0-1.269,3.157v9.027h-1.5v-9.41q0-3.953-3.923-3.953a4.177,4.177,0,0,0-3.481,1.623,5.869,5.869,0,0,0-1.121,3.658v8.083h-1.5V293.144h1.5v1.888a5.724,5.724,0,0,1,4.9-2.212,4.743,4.743,0,0,1,4.631,2.537q1.475-2.537,5.1-2.537,5.4,0,5.4,5.074v9.676Z" transform="translate(-203.419 -287.302)" fill="#888"/>
        <path id="Trazado_747" data-name="Trazado 747" d="M297.265,308.1a6.648,6.648,0,0,1-5.871-2.832v7.257h-1.5V293.144h1.5v2.507a6.617,6.617,0,0,1,5.841-2.832,7.077,7.077,0,0,1,5.487,2.153,7.808,7.808,0,0,1,1.858,5.428,7.978,7.978,0,0,1-1.917,5.6A6.949,6.949,0,0,1,297.265,308.1Zm4.37-12.066a5.225,5.225,0,0,0-4.237-1.829,5.785,5.785,0,0,0-4.37,1.7,6.176,6.176,0,0,0-1.634,4.47,6.65,6.65,0,0,0,1.442,4.572,5.664,5.664,0,0,0,4.531,1.771,5.294,5.294,0,0,0,4.3-1.829,6.771,6.771,0,0,0,1.413-4.455A6.59,6.59,0,0,0,301.634,296.034Z" transform="translate(-228.294 -287.302)" fill="#888"/>
        <path id="Trazado_748" data-name="Trazado 748" d="M335.267,307.6V305a6.765,6.765,0,0,1-5.988,2.891,6.914,6.914,0,0,1-5.4-2.183,8.588,8.588,0,0,1,.03-10.708,7.026,7.026,0,0,1,5.487-2.183,6.626,6.626,0,0,1,5.87,2.8v-2.8h1.5V307.6Zm-1.5-11.683a5.842,5.842,0,0,0-4.5-1.711,5.4,5.4,0,0,0-4.3,1.829,6.543,6.543,0,0,0-1.442,4.366,6.354,6.354,0,0,0,1.442,4.336,5.373,5.373,0,0,0,4.3,1.77,5.7,5.7,0,0,0,4.37-1.741,6.13,6.13,0,0,0,1.633-4.366A6.419,6.419,0,0,0,333.766,295.916Z" transform="translate(-244.614 -287.302)" fill="#888"/>
        <path id="Trazado_749" data-name="Trazado 749" d="M360.313,296.565a9.555,9.555,0,0,0-1.3,5.222v5.782h-1.5V293.144h1.5v2.448a5.864,5.864,0,0,1,1.121-1.21,8,8,0,0,1,5.163-1.563v1.386A5.5,5.5,0,0,0,360.313,296.565Z" transform="translate(-262.64 -287.302)" fill="#888"/>
        <path id="Trazado_750" data-name="Trazado 750" d="M388.142,307.6V305a6.767,6.767,0,0,1-5.989,2.891,6.914,6.914,0,0,1-5.4-2.183,8.59,8.59,0,0,1,.03-10.708,7.026,7.026,0,0,1,5.487-2.183,6.628,6.628,0,0,1,5.871,2.8v-2.8h1.5V307.6Zm-1.5-11.683a5.842,5.842,0,0,0-4.5-1.711,5.4,5.4,0,0,0-4.3,1.829A6.542,6.542,0,0,0,376.4,300.4a6.354,6.354,0,0,0,1.442,4.336,5.373,5.373,0,0,0,4.3,1.77,5.7,5.7,0,0,0,4.37-1.741,6.13,6.13,0,0,0,1.634-4.366A6.419,6.419,0,0,0,386.64,295.916Z" transform="translate(-271.47 -287.302)" fill="#888"/>
        <path id="Trazado_751" data-name="Trazado 751" d="M423.374,302.149l-2.855-5.9h-9.858l-2.892,5.9h-3.2l10.029-20h2.213l9.676,20Zm-7.7-15.839-3.7,7.373h7.3Z" transform="translate(-286.541 -281.882)" fill="#451f69"/>
        <path id="Trazado_752" data-name="Trazado 752" d="M457.708,307.067a9.227,9.227,0,0,1-4.248.855q-7.228,0-7.228-6.667h2.891a4.25,4.25,0,0,0,.974,3.2,4.988,4.988,0,0,0,3.392.9q3.688,0,3.688-1.874,0-1.143-2.424-1.641l-2.95-.415q-4.951-.709-4.952-4.171a3.811,3.811,0,0,1,2.065-3.461,7.652,7.652,0,0,1,4.041-1.035q6.992,0,7.021,6.077h-2.921a3.541,3.541,0,0,0-.87-2.743,4.721,4.721,0,0,0-3.083-.767,4.893,4.893,0,0,0-2.419.531,1.573,1.573,0,0,0-.944,1.386q0,1.092,2.331,1.475.766.147,3.1.53,4.9.768,4.9,4.219A3.82,3.82,0,0,1,457.708,307.067Z" transform="translate(-307.702 -287.272)" fill="#451f69"/>
        <path id="Trazado_753" data-name="Trazado 753" d="M486.843,307.067a9.229,9.229,0,0,1-4.248.855q-7.228,0-7.228-6.667h2.891a4.248,4.248,0,0,0,.974,3.2,4.988,4.988,0,0,0,3.392.9q3.687,0,3.687-1.874,0-1.143-2.423-1.641l-2.95-.415q-4.951-.709-4.951-4.171a3.811,3.811,0,0,1,2.065-3.461,7.655,7.655,0,0,1,4.042-1.035q6.992,0,7.021,6.077h-2.921a3.543,3.543,0,0,0-.87-2.743,4.721,4.721,0,0,0-3.083-.767,4.893,4.893,0,0,0-2.419.531,1.573,1.573,0,0,0-.944,1.386q0,1.092,2.331,1.475.766.147,3.1.53,4.9.768,4.9,4.219A3.82,3.82,0,0,1,486.843,307.067Z" transform="translate(-322.5 -287.272)" fill="#451f69"/>
        <path id="Trazado_754" data-name="Trazado 754" d="M506.818,285.886a1.415,1.415,0,0,1-1.357-1.055v-2.168a1.525,1.525,0,0,1,1.357-1.055,2.145,2.145,0,0,1,1.475.908v2.491A2.084,2.084,0,0,1,506.818,285.886Zm-1.357,15.989V286.889h2.832v14.986Z" transform="translate(-337.785 -281.608)" fill="#451f69"/>
        <path id="Trazado_755" data-name="Trazado 755" d="M524.13,307.067a9.229,9.229,0,0,1-4.248.855q-7.228,0-7.228-6.667h2.891a4.248,4.248,0,0,0,.974,3.2,4.988,4.988,0,0,0,3.392.9q3.687,0,3.688-1.874,0-1.143-2.424-1.641l-2.95-.415q-4.951-.709-4.952-4.171a3.812,3.812,0,0,1,2.065-3.461,7.655,7.655,0,0,1,4.042-1.035q6.992,0,7.021,6.077H523.48a3.543,3.543,0,0,0-.87-2.743,4.721,4.721,0,0,0-3.083-.767,4.893,4.893,0,0,0-2.419.531,1.573,1.573,0,0,0-.944,1.386q0,1.092,2.331,1.475.767.147,3.1.53,4.9.768,4.9,4.219A3.82,3.82,0,0,1,524.13,307.067Z" transform="translate(-341.438 -287.272)" fill="#451f69"/>
        <path id="Trazado_756" data-name="Trazado 756" d="M546.252,292.563V304.1H543.42V292.563h-2.95V290h2.95v-4.012h2.832V290h2.979v2.566Z" transform="translate(-355.566 -283.831)" fill="#451f69"/>
      </g>
    </g>
    <circle id="Elipse_43" data-name="Elipse 43" cx="25" cy="25" r="25" transform="translate(40.633 251.196)" fill="#451f69"/>
    <g id="Grupo_218" data-name="Grupo 218" transform="translate(48.133 258.697)">
      <path id="Trazado_757" data-name="Trazado 757" d="M90.836,282.8a17.5,17.5,0,0,0-34.925,0c-.023.361-.037.724-.037,1.09s.015.73.037,1.09H67.452l-2.536,2.531a1.092,1.092,0,0,0,1.547,1.543l2.7-2.7,1.7-1.7a1.089,1.089,0,0,0,.14-1.371,1.124,1.124,0,0,0-.14-.171l-1.7-1.7-2.7-2.7a1.092,1.092,0,1,0-1.547,1.542l2.536,2.531H58.1a15.311,15.311,0,0,1,30.539,0H79.3l2.536-2.531a1.092,1.092,0,1,0-1.547-1.542l-2.7,2.7-1.7,1.7a1.09,1.09,0,0,0,0,1.542l1.7,1.7,2.7,2.7a1.092,1.092,0,0,0,1.547-1.543L79.3,284.978H90.836c.023-.361.038-.724.038-1.09S90.859,283.157,90.836,282.8Z" transform="translate(-55.874 -266.438)" fill="#fff"/>
      <path id="Trazado_758" data-name="Trazado 758" d="M96.68,315.085a1.081,1.081,0,0,0-1.025.717,2.188,2.188,0,0,1-4.253-.717h0V303.05a1.135,1.135,0,0,0-.981-1.148,1.093,1.093,0,0,0-1.207,1.085v12.1a4.378,4.378,0,0,0,8.493,1.477,1.1,1.1,0,0,0-1.027-1.477Z" transform="translate(-72.807 -284.448)" fill="#fff"/>
    </g>
  </g>
</svg>
